<svg id="Ebene_1" data-name="Ebene 1" xmlns="http://www.w3.org/2000/svg" viewBox="0 0 16 16"><defs><style>.cls-1{fill:#888;}.cls-2{fill:#fff;}.cls-3{fill:#5c9100;}.cls-4{fill:#aaa;}</style></defs><title>cal</title><path class="cls-1" d="M0,2V14H12.69V3.81H5.08L4,2Z"/><path class="cls-2" d="M2,0H13V11H2Z"/><rect class="cls-3" x="2" y="0.04" width="10.98" height="10.98"/><path class="cls-2" d="M4.74,2.4V4h5.49V2.4Zm0,2.34V8.57a.07.07,0,0,0,.07.07h5.31a.08.08,0,0,0,.07-.07h0V4.74Zm.81.78h.77v.79H5.55Zm1.55,0h.78v.79H7.1Zm1.56,0h.78v.79H8.66ZM5.55,7.08h.77v.78H5.55Zm1.55,0h.78v.78H7.1Z"/><path class="cls-4" d="M8.25,6.05,6.54,7.37h-4L0,14H13l3-7.92Z"/></svg>